<mxfile host="app.diagrams.net" modified="2024-06-23T17:36:35.044Z" agent="Mozilla/5.0 (Windows NT 10.0; Win64; x64) AppleWebKit/537.36 (KHTML, like Gecko) Chrome/126.0.0.0 Safari/537.36 Edg/126.0.0.0" version="24.5.4" etag="H7-xzEY05bMld1WlOvCR" type="github">
  <diagram name="Page-1" id="ABK0qlNQWMwjMVvwtllY">
    <mxGraphModel>
      <root>
        <mxCell id="0" />
        <mxCell id="1" parent="0" />
        <mxCell id="2" value="Електронний переказ" style="whiteSpace=wrap;strokeWidth=2;verticalAlign=top;" vertex="1" parent="1">
          <mxGeometry x="28" y="654" width="294" height="168" as="geometry" />
        </mxCell>
        <mxCell id="3" value="Вказати отримувача та суму" style="whiteSpace=wrap;strokeWidth=2;" vertex="1" parent="1">
          <mxGeometry x="63" y="679" width="224" height="34" as="geometry" />
        </mxCell>
        <mxCell id="4" value="Підтвердження операції" style="whiteSpace=wrap;strokeWidth=2;" vertex="1" parent="1">
          <mxGeometry x="78" y="763" width="195" height="34" as="geometry" />
        </mxCell>
        <mxCell id="5" value="Аутентифікація" style="whiteSpace=wrap;strokeWidth=2;verticalAlign=top;" vertex="1" parent="1">
          <mxGeometry x="11" y="436" width="328" height="168" as="geometry" />
        </mxCell>
        <mxCell id="6" value="Введення і перевірка пароля" style="whiteSpace=wrap;strokeWidth=2;" vertex="1" parent="1">
          <mxGeometry x="61" y="461" width="230" height="34" as="geometry" />
        </mxCell>
        <mxCell id="7" value="Підтвердження особистих даних" style="whiteSpace=wrap;strokeWidth=2;" vertex="1" parent="1">
          <mxGeometry x="46" y="545" width="258" height="34" as="geometry" />
        </mxCell>
        <mxCell id="8" value="Реєстрація" style="whiteSpace=wrap;strokeWidth=2;verticalAlign=top;" vertex="1" parent="1">
          <mxGeometry y="109" width="351" height="277" as="geometry" />
        </mxCell>
        <mxCell id="9" value="Створення облікового запису" style="whiteSpace=wrap;strokeWidth=2;" vertex="1" parent="1">
          <mxGeometry x="59" y="134" width="233" height="34" as="geometry" />
        </mxCell>
        <mxCell id="10" value="Підтвердження електронної адреси" style="whiteSpace=wrap;strokeWidth=2;" vertex="1" parent="1">
          <mxGeometry x="35" y="243" width="281" height="34" as="geometry" />
        </mxCell>
        <mxCell id="11" value="Заповнення особистих даних" style="whiteSpace=wrap;strokeWidth=2;" vertex="1" parent="1">
          <mxGeometry x="60" y="327" width="231" height="34" as="geometry" />
        </mxCell>
        <mxCell id="12" value="Технічне завдання" style="whiteSpace=wrap;strokeWidth=2;verticalAlign=top;" vertex="1" parent="1">
          <mxGeometry x="371" width="323" height="193" as="geometry" />
        </mxCell>
        <mxCell id="13" value="Система електронних переказів" style="whiteSpace=wrap;strokeWidth=2;" vertex="1" parent="1">
          <mxGeometry x="406" y="134" width="253" height="34" as="geometry" />
        </mxCell>
        <mxCell id="14" value="Алгоритм" style="whiteSpace=wrap;strokeWidth=2;" vertex="1" parent="1">
          <mxGeometry x="479" y="25" width="86" height="34" as="geometry" />
        </mxCell>
        <mxCell id="15" value="" style="curved=1;dashed=1;dashPattern=2 3;startArrow=none;endArrow=block;exitX=0.55;exitY=1;entryX=0.5;entryY=0;" edge="1" parent="1" source="14" target="13">
          <mxGeometry relative="1" as="geometry">
            <Array as="points">
              <mxPoint x="532" y="84" />
            </Array>
          </mxGeometry>
        </mxCell>
        <mxCell id="16" value="" style="curved=1;startArrow=none;endArrow=block;exitX=0.17;exitY=1;entryX=0.98;entryY=0;" edge="1" parent="1" source="14" target="9">
          <mxGeometry relative="1" as="geometry">
            <Array as="points">
              <mxPoint x="451" y="84" />
              <mxPoint x="451" y="109" />
            </Array>
          </mxGeometry>
        </mxCell>
        <mxCell id="17" value="" style="curved=1;startArrow=none;endArrow=block;exitX=0.5;exitY=1;entryX=0.5;entryY=0;" edge="1" parent="1" source="9" target="10">
          <mxGeometry relative="1" as="geometry">
            <Array as="points" />
          </mxGeometry>
        </mxCell>
        <mxCell id="18" value="" style="curved=1;startArrow=none;endArrow=block;exitX=0.5;exitY=1;entryX=0.5;entryY=0;" edge="1" parent="1" source="10" target="11">
          <mxGeometry relative="1" as="geometry">
            <Array as="points" />
          </mxGeometry>
        </mxCell>
        <mxCell id="19" value="" style="curved=1;startArrow=none;endArrow=block;exitX=0.5;exitY=1;entryX=0.5;entryY=0;" edge="1" parent="1" source="11" target="6">
          <mxGeometry relative="1" as="geometry">
            <Array as="points" />
          </mxGeometry>
        </mxCell>
        <mxCell id="20" value="" style="curved=1;startArrow=none;endArrow=block;exitX=0.5;exitY=1;entryX=0.5;entryY=0;" edge="1" parent="1" source="6" target="7">
          <mxGeometry relative="1" as="geometry">
            <Array as="points" />
          </mxGeometry>
        </mxCell>
        <mxCell id="21" value="" style="curved=1;startArrow=none;endArrow=block;exitX=0.5;exitY=1;entryX=0.5;entryY=0;" edge="1" parent="1" source="7" target="3">
          <mxGeometry relative="1" as="geometry">
            <Array as="points" />
          </mxGeometry>
        </mxCell>
        <mxCell id="22" value="" style="curved=1;startArrow=none;endArrow=block;exitX=0.5;exitY=1;entryX=0.5;entryY=0;" edge="1" parent="1" source="3" target="4">
          <mxGeometry relative="1" as="geometry">
            <Array as="points" />
          </mxGeometry>
        </mxCell>
      </root>
    </mxGraphModel>
  </diagram>
</mxfile>
